<svg width="14" height="16" viewBox="0 0 14 16" fill="none" xmlns="http://www.w3.org/2000/svg">
<path d="M10.7924 5.24648C10.7073 5.35831 10.6097 5.47433 10.4974 5.59161C10.2912 5.80606 10.0867 5.97066 9.91071 6.09422C10.0218 5.94553 10.1512 5.73611 10.2459 5.46595C10.3377 5.20375 10.3708 4.95621 10.3758 4.74344C10.2392 4.59977 10.093 4.46532 9.93921 4.34009C9.74812 5.56522 9.2503 7.58449 7.81551 9.61255C7.56325 9.96899 7.30386 10.2953 7.04363 10.5931C7.19826 10.4963 7.67262 10.2278 8.31836 10.2827C9.07053 10.3464 9.53357 10.8046 9.64713 10.9235C9.53064 11.0647 8.85976 11.8492 7.7317 11.9162C6.95103 11.9627 6.37317 11.6406 6.15904 11.5062C5.81836 11.8232 5.49067 12.0925 5.19189 12.3187C5.74251 12.5453 6.34509 12.6706 6.97743 12.6706C9.56961 12.6706 11.6707 10.5705 11.6707 7.97946C11.6707 6.95998 11.3451 6.01674 10.7924 5.24689V5.24648ZM9.70077 6.80627C10.1286 6.39956 10.6059 6.29318 10.7903 6.26176C10.8045 6.34805 10.8967 6.96794 10.455 7.47642C9.92747 8.08375 9.13046 7.96564 9.08394 7.9581C9.11537 7.77925 9.2327 7.2515 9.70077 6.80627ZM9.9941 9.7382C9.23647 10.1436 8.50148 9.7692 8.44365 9.7382C8.48304 9.6159 8.70681 8.9625 9.40744 8.60731C10.0842 8.26428 10.7203 8.44522 10.8498 8.48543C10.841 8.55831 10.7316 9.34365 9.9941 9.7382Z" fill="#1DA889"/>
<path d="M3.79231 9.69622C3.83631 8.70857 4.33832 8.0359 4.52563 7.80763C4.7561 8.18795 5.47056 8.72994 5.55228 9.94753C5.61597 10.8966 5.23087 11.5965 5.07583 11.8478C5.62812 11.439 6.26758 10.887 6.89321 10.157C7.37427 9.59569 8.26096 8.54062 8.82079 6.88994C9.20715 5.75067 9.30772 4.71151 9.30646 3.90564C9.11035 3.79339 8.90544 3.69496 8.69299 3.61119C8.75794 3.87716 8.80948 4.1913 8.82121 4.54439C8.84007 5.12323 8.74537 5.6003 8.6536 5.92658C8.65863 5.56428 8.61924 4.89999 8.27646 4.16742C8.12309 3.83946 7.9429 3.57015 7.76942 3.35486C7.51171 3.3113 7.2473 3.28784 6.97744 3.28784C4.38525 3.28784 2.28418 5.38795 2.28418 7.97894C2.28418 9.75444 3.27102 11.2996 4.72677 12.0962C4.57382 11.9396 3.7328 11.0462 3.79273 9.69622H3.79231ZM6.89321 4.33496C7.14463 4.54439 7.76104 4.7291 8.15033 5.42397C8.68419 6.37727 8.23414 7.39255 8.23414 7.60198C8.10507 7.55842 7.27621 7.12114 6.89321 6.17789C6.53325 5.29035 6.83287 4.4669 6.89321 4.33496ZM5.67799 7.89517C5.76599 7.41056 5.97216 6.97915 6.13893 6.76428C6.7478 7.31842 6.84167 7.37161 7.01892 8.10459C7.29423 9.24302 6.5014 10.1247 6.43226 10.1988C6.01322 9.27737 5.45464 9.12281 5.67799 7.89517Z" fill="#1DA889"/>
<path d="M6.95288 0L0 3.98408V12.0046L6.95288 16L13.822 11.9372V3.8534L6.95288 0ZM12.7782 11.3277L6.9466 14.777L1.04419 11.3851V4.57633L6.9466 1.19414L12.7782 4.46534V11.3277Z" fill="#1DA889"/>
</svg>
