<svg width="21" height="20" viewBox="0 0 21 20" fill="none" xmlns="http://www.w3.org/2000/svg">
<path fill-rule="evenodd" clip-rule="evenodd" d="M16.1916 5.37543C16.491 5.07603 16.491 4.5906 16.1916 4.2912C15.8922 3.9918 15.4068 3.9918 15.1074 4.2912L10.4828 8.91576L5.85829 4.2912C5.55888 3.9918 5.07345 3.9918 4.77405 4.2912C4.47465 4.5906 4.47465 5.07603 4.77405 5.37543L9.39861 9.99999L4.77405 14.6245C4.47465 14.924 4.47465 15.4093 4.77405 15.7088C5.07345 16.0081 5.55888 16.0081 5.85829 15.7088L10.4828 11.0842L15.1074 15.7088C15.4068 16.0081 15.8922 16.0081 16.1916 15.7088C16.491 15.4093 16.491 14.924 16.1916 14.6245L11.5671 9.99999L16.1916 5.37543Z" fill="#62636C"/>
</svg>
