<svg width="24" height="24" viewBox="0 0 15 16" fill="none" xmlns="http://www.w3.org/2000/svg">
<path fill-rule="evenodd" clip-rule="evenodd" d="M2.8 1.50006L2.74967 1.50003C2.52122 1.49981 2.32429 1.49963 2.14983 1.54151C1.60136 1.67318 1.17312 2.10142 1.04145 2.64989C0.999564 2.82435 0.999752 3.02128 0.99997 3.24973L1 3.30006V5.70006L0.99997 5.75039C0.999752 5.97884 0.999564 6.17578 1.04145 6.35023C1.17312 6.8987 1.60136 7.32694 2.14983 7.45862C2.32429 7.5005 2.52122 7.50031 2.74967 7.50009L2.8 7.50006H5.2L5.25033 7.50009C5.47878 7.50031 5.67572 7.5005 5.85017 7.45862C6.39864 7.32694 6.82688 6.8987 6.95856 6.35023C7.00044 6.17578 7.00025 5.97884 7.00003 5.75039L7 5.70006V3.30006L7.00003 3.24973C7.00025 3.02128 7.00044 2.82435 6.95856 2.64989C6.82688 2.10142 6.39864 1.67318 5.85017 1.54151C5.67572 1.49963 5.47878 1.49981 5.25033 1.50003L5.2 1.50006H2.8ZM2.38328 2.51388C2.42632 2.50355 2.49222 2.50006 2.8 2.50006H5.2C5.50779 2.50006 5.57369 2.50355 5.61672 2.51388C5.79955 2.55777 5.94229 2.70052 5.98619 2.88334C5.99652 2.92638 6 2.99228 6 3.30006V5.70006C6 6.00785 5.99652 6.07375 5.98619 6.11679C5.94229 6.29961 5.79955 6.44236 5.61672 6.48625C5.57369 6.49658 5.50779 6.50006 5.2 6.50006H2.8C2.49222 6.50006 2.42632 6.49658 2.38328 6.48625C2.20045 6.44236 2.05771 6.29961 2.01382 6.11679C2.00348 6.07375 2 6.00785 2 5.70006V3.30006C2 2.99228 2.00348 2.92638 2.01382 2.88334C2.05771 2.70052 2.20045 2.55777 2.38328 2.51388ZM9.8 1.50006L9.74967 1.50003C9.52122 1.49981 9.32429 1.49963 9.14983 1.54151C8.60136 1.67318 8.17312 2.10142 8.04145 2.64989C7.99956 2.82435 7.99975 3.02128 7.99997 3.24973L8 3.30006V5.70006L7.99997 5.75039C7.99975 5.97884 7.99956 6.17578 8.04145 6.35023C8.17312 6.8987 8.60136 7.32694 9.14983 7.45862C9.32429 7.5005 9.52122 7.50031 9.74967 7.50009L9.8 7.50006H12.2L12.2503 7.50009C12.4788 7.50031 12.6757 7.5005 12.8502 7.45862C13.3986 7.32694 13.8269 6.8987 13.9586 6.35023C14.0004 6.17578 14.0003 5.97884 14 5.75039L14 5.70006V3.30006L14 3.24973C14.0003 3.02128 14.0004 2.82435 13.9586 2.64989C13.8269 2.10142 13.3986 1.67318 12.8502 1.54151C12.6757 1.49963 12.4788 1.49981 12.2503 1.50003L12.2 1.50006H9.8ZM9.38328 2.51388C9.42632 2.50355 9.49222 2.50006 9.8 2.50006H12.2C12.5078 2.50006 12.5737 2.50355 12.6167 2.51388C12.7995 2.55777 12.9423 2.70052 12.9862 2.88334C12.9965 2.92638 13 2.99228 13 3.30006V5.70006C13 6.00785 12.9965 6.07375 12.9862 6.11679C12.9423 6.29961 12.7995 6.44236 12.6167 6.48625C12.5737 6.49658 12.5078 6.50006 12.2 6.50006H9.8C9.49222 6.50006 9.42632 6.49658 9.38328 6.48625C9.20045 6.44236 9.05771 6.29961 9.01382 6.11679C9.00348 6.07375 9 6.00785 9 5.70006V3.30006C9 2.99228 9.00348 2.92638 9.01382 2.88334C9.05771 2.70052 9.20045 2.55777 9.38328 2.51388ZM2.74967 8.50003L2.8 8.50006H5.2L5.25033 8.50003C5.47878 8.49981 5.67572 8.49963 5.85017 8.54151C6.39864 8.67318 6.82688 9.10142 6.95856 9.64989C7.00044 9.82435 7.00025 10.0213 7.00003 10.2497L7 10.3001V12.7001L7.00003 12.7504C7.00025 12.9788 7.00044 13.1758 6.95856 13.3502C6.82688 13.8987 6.39864 14.3269 5.85017 14.4586C5.67572 14.5005 5.47878 14.5003 5.25033 14.5001L5.2 14.5001H2.8L2.74967 14.5001C2.52122 14.5003 2.32429 14.5005 2.14983 14.4586C1.60136 14.3269 1.17312 13.8987 1.04145 13.3502C0.999564 13.1758 0.999752 12.9788 0.99997 12.7504L1 12.7001V10.3001L0.99997 10.2497C0.999752 10.0213 0.999564 9.82435 1.04145 9.64989C1.17312 9.10142 1.60136 8.67318 2.14983 8.54151C2.32429 8.49963 2.52122 8.49981 2.74967 8.50003ZM2.8 9.50006C2.49222 9.50006 2.42632 9.50354 2.38328 9.51388C2.20045 9.55777 2.05771 9.70052 2.01382 9.88334C2.00348 9.92638 2 9.99228 2 10.3001V12.7001C2 13.0078 2.00348 13.0737 2.01382 13.1168C2.05771 13.2996 2.20045 13.4424 2.38328 13.4862C2.42632 13.4966 2.49222 13.5001 2.8 13.5001H5.2C5.50779 13.5001 5.57369 13.4966 5.61672 13.4862C5.79955 13.4424 5.94229 13.2996 5.98619 13.1168C5.99652 13.0737 6 13.0078 6 12.7001V10.3001C6 9.99228 5.99652 9.92638 5.98619 9.88334C5.94229 9.70052 5.79955 9.55777 5.61672 9.51388C5.57369 9.50354 5.50779 9.50006 5.2 9.50006H2.8ZM9.8 8.50006L9.74967 8.50003C9.52122 8.49981 9.32429 8.49963 9.14983 8.54151C8.60136 8.67318 8.17312 9.10142 8.04145 9.64989C7.99956 9.82435 7.99975 10.0213 7.99997 10.2497L8 10.3001V12.7001L7.99997 12.7504C7.99975 12.9788 7.99956 13.1758 8.04145 13.3502C8.17312 13.8987 8.60136 14.3269 9.14983 14.4586C9.32429 14.5005 9.52122 14.5003 9.74967 14.5001L9.8 14.5001H12.2L12.2503 14.5001C12.4788 14.5003 12.6757 14.5005 12.8502 14.4586C13.3986 14.3269 13.8269 13.8987 13.9586 13.3502C14.0004 13.1758 14.0003 12.9788 14 12.7504L14 12.7001V10.3001L14 10.2497C14.0003 10.0213 14.0004 9.82435 13.9586 9.64989C13.8269 9.10142 13.3986 8.67318 12.8502 8.54151C12.6757 8.49963 12.4788 8.49981 12.2503 8.50003L12.2 8.50006H9.8ZM9.38328 9.51388C9.42632 9.50354 9.49222 9.50006 9.8 9.50006H12.2C12.5078 9.50006 12.5737 9.50354 12.6167 9.51388C12.7995 9.55777 12.9423 9.70052 12.9862 9.88334C12.9965 9.92638 13 9.99228 13 10.3001V12.7001C13 13.0078 12.9965 13.0737 12.9862 13.1168C12.9423 13.2996 12.7995 13.4424 12.6167 13.4862C12.5737 13.4966 12.5078 13.5001 12.2 13.5001H9.8C9.49222 13.5001 9.42632 13.4966 9.38328 13.4862C9.20045 13.4424 9.05771 13.2996 9.01382 13.1168C9.00348 13.0737 9 13.0078 9 12.7001V10.3001C9 9.99228 9.00348 9.92638 9.01382 9.88334C9.05771 9.70052 9.20045 9.55777 9.38328 9.51388Z" fill="#008164"/>
</svg>
