<svg width="24" height="24" viewBox="0 0 16 16" fill="none" xmlns="http://www.w3.org/2000/svg">
<g clip-path="url(#clip0_168_2756)">
<path d="M14.8174 13.6903L13.2263 12.0992C13.6677 11.5196 13.9335 10.7985 13.9335 10.0164C13.932 9.10199 13.568 8.22551 12.9213 7.57916C12.2745 6.93281 11.3978 6.56935 10.4835 6.5685C9.56946 6.56991 8.69331 6.93362 8.04702 7.57992C7.40073 8.22621 7.03702 9.10236 7.0356 10.0164C7.03645 10.9309 7.40006 11.8078 8.04664 12.4546C8.69323 13.1013 9.56998 13.4652 10.4845 13.4664C11.2677 13.4664 11.9888 13.2006 12.5674 12.7592L14.1585 14.3492C14.2014 14.3927 14.2525 14.4271 14.3089 14.4507C14.3653 14.4742 14.4258 14.4863 14.4868 14.4863C14.5479 14.4863 14.6084 14.4742 14.6648 14.4507C14.7212 14.4271 14.7723 14.3927 14.8152 14.3492C14.8588 14.3061 14.8933 14.2549 14.917 14.1985C14.9407 14.142 14.953 14.0814 14.9532 14.0202C14.9534 13.959 14.9415 13.8983 14.9182 13.8417C14.8949 13.7851 14.8606 13.7336 14.8174 13.6903ZM7.96667 10.0164C7.96752 9.34884 8.23307 8.70891 8.70507 8.2369C9.17708 7.76489 9.81701 7.49935 10.4845 7.4985C11.1523 7.4985 11.7927 7.76377 12.2649 8.23596C12.7371 8.70815 13.0024 9.34858 13.0024 10.0164C13.0024 10.6841 12.7371 11.3246 12.2649 11.7967C11.7927 12.2689 11.1523 12.5342 10.4845 12.5342C9.8171 12.5331 9.17733 12.2674 8.70539 11.7955C8.23344 11.3236 7.9678 10.6838 7.96667 10.0164ZM11.9256 4.47171C11.9256 4.72885 11.7167 4.93671 11.4595 4.93671H6.80203C6.6787 4.93671 6.56043 4.88772 6.47322 4.80052C6.38602 4.71331 6.33703 4.59504 6.33703 4.47171C6.33703 4.34839 6.38602 4.23011 6.47322 4.14291C6.56043 4.0557 6.6787 4.00671 6.80203 4.00671H11.4595C11.7167 4.00671 11.9256 4.21457 11.9256 4.47171ZM2.99846 13.5542H6.10346C6.22161 13.5622 6.3323 13.6148 6.41315 13.7013C6.49401 13.7879 6.53898 13.9019 6.53898 14.0203C6.53898 14.1387 6.49401 14.2527 6.41315 14.3392C6.3323 14.4258 6.22161 14.4783 6.10346 14.4864H2.99846C2.14346 14.4864 1.44489 13.7899 1.44489 12.9328V4.64635C1.44489 4.43743 1.51989 4.23493 1.65381 4.07421L4.00453 1.27778C4.08336 1.18397 4.18174 1.10851 4.29278 1.05669C4.40382 1.00487 4.52485 0.977939 4.64739 0.977783H12.2352C13.0913 0.977783 13.7888 1.67421 13.7888 2.53135V5.86778C13.7888 5.99139 13.7397 6.10994 13.6523 6.19735C13.5649 6.28475 13.4464 6.33385 13.3227 6.33385C13.1991 6.33385 13.0806 6.28475 12.9932 6.19735C12.9058 6.10994 12.8567 5.99139 12.8567 5.86778V2.53028C12.8564 2.36603 12.7911 2.20856 12.675 2.09231C12.559 1.97607 12.4016 1.91049 12.2374 1.90993H5.40489V4.6035C5.40291 4.79986 5.32322 4.98745 5.18326 5.1252C5.0433 5.26295 4.85447 5.33964 4.6581 5.3385H2.3781V12.9339C2.3781 13.2756 2.65667 13.5542 2.99846 13.5542ZM4.47381 2.16707L2.59131 4.40635H4.47381V2.16707ZM5.63846 9.14207C5.76207 9.14207 5.88061 9.09297 5.96802 9.00556C6.05542 8.91815 6.10453 8.79961 6.10453 8.676C6.10453 8.55239 6.05542 8.43384 5.96802 8.34644C5.88061 8.25903 5.76207 8.20993 5.63846 8.20993H4.00774C3.88413 8.20993 3.76559 8.25903 3.67818 8.34644C3.59077 8.43384 3.54167 8.55239 3.54167 8.676C3.54167 8.79961 3.59077 8.91815 3.67818 9.00556C3.76559 9.09297 3.88413 9.14207 4.00774 9.14207H5.63846ZM5.63846 11.2817C5.76192 11.2817 5.88034 11.2327 5.96764 11.1454C6.05495 11.0581 6.10399 10.9396 6.10399 10.8162C6.10399 10.6927 6.05495 10.5743 5.96764 10.487C5.88034 10.3997 5.76192 10.3506 5.63846 10.3506H4.00774C3.88427 10.3506 3.76586 10.3997 3.67856 10.487C3.59125 10.5743 3.54221 10.6927 3.54221 10.8162C3.54221 10.9396 3.59125 11.0581 3.67856 11.1454C3.76586 11.2327 3.88427 11.2817 4.00774 11.2817H5.63846ZM6.10346 6.10778H4.00774C3.88427 6.10778 3.76586 6.15683 3.67856 6.24414C3.59125 6.33144 3.54221 6.44985 3.54221 6.57332C3.54221 6.69679 3.59125 6.8152 3.67856 6.9025C3.76586 6.98981 3.88427 7.03886 4.00774 7.03886H6.10346C6.22692 7.03886 6.34534 6.98981 6.43264 6.9025C6.51995 6.8152 6.56899 6.69679 6.56899 6.57332C6.56899 6.44985 6.51995 6.33144 6.43264 6.24414C6.34534 6.15683 6.22692 6.10778 6.10346 6.10778Z" fill="#008164"/>
</g>
<defs>
<clipPath id="clip0_168_2756">
<rect width="15" height="15" fill="white" transform="translate(0.482758 0.5)"/>
</clipPath>
</defs>
</svg>
