<svg width="24" height="24" viewBox="0 0 15 16" fill="none" xmlns="http://www.w3.org/2000/svg">
<path fill-rule="evenodd" clip-rule="evenodd" d="M7.50005 1.55005C7.74858 1.55005 7.95005 1.75152 7.95005 2.00005V8.91365L10.1819 6.68185C10.3576 6.50611 10.6425 6.50611 10.8182 6.68185C10.994 6.85759 10.994 7.14251 10.8182 7.31825L7.81825 10.3182C7.64251 10.494 7.35759 10.494 7.18185 10.3182L4.18185 7.31825C4.00611 7.14251 4.00611 6.85759 4.18185 6.68185C4.35759 6.50611 4.64251 6.50611 4.81825 6.68185L7.05005 8.91365V2.00005C7.05005 1.75152 7.25152 1.55005 7.50005 1.55005ZM2.5 10.5001C2.77614 10.5001 3 10.7239 3 11.0001V12.5001C3 13.0539 3.44565 13.5001 3.99635 13.5001H11.0012C11.5529 13.5001 12 13.0528 12 12.5001V11.0001C12 10.7239 12.2239 10.5001 12.5 10.5001C12.7761 10.5001 13 10.7239 13 11.0001V12.5001C13 13.6041 12.1062 14.5001 11.0012 14.5001H3.99635C2.89019 14.5001 2 13.603 2 12.5001V11.0001C2 10.7239 2.22386 10.5001 2.5 10.5001Z" fill="#008164"/>
</svg>
