<svg width="20" height="20" viewBox="0 0 16 16" fill="none" xmlns="http://www.w3.org/2000/svg">
<path fill-rule="evenodd" clip-rule="evenodd" d="M12.6292 1.64645C12.8244 1.45118 13.141 1.45118 13.3363 1.64645L15.3363 3.64645C15.5316 3.84171 15.5316 4.15829 15.3363 4.35355L11.3937 8.29618C11.3177 8.37218 11.2299 8.43543 11.1338 8.4835L7.20634 10.4472C7.01385 10.5435 6.78136 10.5057 6.62918 10.3536C6.477 10.2014 6.43928 9.96889 6.53552 9.77639L8.49924 5.84897C8.5473 5.75283 8.61056 5.66507 8.68656 5.58907L12.6292 1.64645ZM12.9827 2.70711L9.39366 6.29618L8.35542 8.37267L8.61007 8.62732L10.6866 7.58907L14.2756 4L12.9827 2.70711ZM10.4827 2.5L9.48274 3.5H5.38276C4.95447 3.5 4.66332 3.50039 4.43828 3.51877C4.21907 3.53668 4.10697 3.56915 4.02877 3.60899C3.84061 3.70487 3.68763 3.85785 3.59175 4.04601C3.55191 4.12421 3.51944 4.23631 3.50153 4.45552C3.48315 4.68056 3.48276 4.97171 3.48276 5.4V11.6C3.48276 12.0283 3.48315 12.3194 3.50153 12.5445C3.51944 12.7637 3.55191 12.8758 3.59175 12.954C3.68763 13.1422 3.84061 13.2951 4.02877 13.391C4.10697 13.4309 4.21907 13.4633 4.43828 13.4812C4.66332 13.4996 4.95447 13.5 5.38276 13.5H11.5828C12.011 13.5 12.3022 13.4996 12.5272 13.4812C12.7464 13.4633 12.8585 13.4309 12.9367 13.391C13.1249 13.2951 13.2779 13.1422 13.3738 12.954C13.4136 12.8758 13.4461 12.7637 13.464 12.5445C13.4824 12.3194 13.4828 12.0283 13.4828 11.6V7.49998L14.4828 6.49998V11.6V11.6207C14.4828 12.0231 14.4828 12.3553 14.4607 12.6259C14.4377 12.907 14.3884 13.1653 14.2648 13.408C14.073 13.7843 13.7671 14.0903 13.3907 14.282C13.1481 14.4057 12.8897 14.4549 12.6087 14.4779C12.3381 14.5 12.0059 14.5 11.6034 14.5H11.5828H5.38276H5.3621C4.95962 14.5 4.62744 14.5 4.35685 14.4779C4.0758 14.4549 3.81745 14.4057 3.57478 14.282C3.19845 14.0903 2.89249 13.7843 2.70075 13.408C2.5771 13.1653 2.52782 12.907 2.50486 12.6259C2.48275 12.3553 2.48275 12.0231 2.48276 11.6207V11.6206V11.6V5.4V5.37935V5.37932V5.37931C2.48275 4.97685 2.48275 4.64468 2.50486 4.37409C2.52782 4.09304 2.5771 3.83469 2.70075 3.59202C2.89249 3.21569 3.19845 2.90973 3.57478 2.71799C3.81745 2.59434 4.0758 2.54506 4.35685 2.5221C4.62744 2.49999 4.95961 2.49999 5.36208 2.5H5.36211H5.38276H10.4827Z" fill="#129B7D"/>
</svg>
