<svg width="24" height="24" viewBox="0 0 15 16" fill="none" xmlns="http://www.w3.org/2000/svg">
<path fill-rule="evenodd" clip-rule="evenodd" d="M4.5 1.5C4.22386 1.5 4 1.72386 4 2C4 2.27614 4.22386 2.5 4.5 2.5H12V13.5H4.5C4.22386 13.5 4 13.7239 4 14C4 14.2761 4.22386 14.5 4.5 14.5H12C12.5523 14.5 13 14.0523 13 13.5V2.5C13 1.94772 12.5523 1.5 12 1.5H4.5ZM6.60355 5.39645C6.40829 5.20118 6.09171 5.20118 5.89645 5.39645C5.70118 5.59171 5.70118 5.90829 5.89645 6.10355L7.29289 7.5H0.5C0.223858 7.5 0 7.72386 0 8C0 8.27614 0.223858 8.5 0.5 8.5H7.29289L5.89645 9.89645C5.70118 10.0917 5.70118 10.4083 5.89645 10.6036C6.09171 10.7988 6.40829 10.7988 6.60355 10.6036L8.85355 8.35355C9.04882 8.15829 9.04882 7.84171 8.85355 7.64645L6.60355 5.39645Z" fill="#008164"/>
</svg>
