<svg width="24" height="24" viewBox="0 0 16 16" fill="none" xmlns="http://www.w3.org/2000/svg">
<path fill-rule="evenodd" clip-rule="evenodd" d="M15 8C15 8.5 14.5 8.5 14.5 8.5L13 8.49994V9.99994C13 9.99994 13 10.5 12.5 10.5C12 10.5 12 9.99994 12 9.99994V8.49994L10.5 8.5C10.5 8.5 10 8.50006 10 8C10 7.49994 10.5 7.49994 10.5 7.49994H12V5.99994C12 5.99994 12 5.49994 12.5 5.49994C13 5.49994 13 5.99994 13 5.99994V7.49994H14.5C14.5 7.49994 15 7.5 15 8ZM3.48276 6.49994H6.00001L6.01724 2.49994H3.5L3.48276 6.49994ZM1.98276 13.4999H6.00001V7.49994H1.98276V13.4999ZM12.5 12C12 12 12 12.4999 12 12.4999V13.4999H7.00001V4.99994H9.48277C9.48277 4.99994 10 5 10 4.49994C10 3.99994 9.5 4 9.48277 3.99994H7.00001L7 2C7 2 7.00001 1.5 6.48276 1.5H3C3 1.5 2.5 1.5 2.5 2L2.50001 6.49994H1.5C1.5 6.49994 1 6.49994 1 6.99994L1 13.9999C0.999998 14.4999 1.5 14.4999 1.5 14.4999H12.4828C12.8953 14.4999 13 14.4124 13 13.9999V12.4999C13 12.4999 13 12 12.5 12Z" fill="#008164"/>
</svg>
