<svg width="24" height="20" viewBox="0 0 16 12" fill="none" xmlns="http://www.w3.org/2000/svg">
<path fill-rule="evenodd" clip-rule="evenodd" d="M15.4828 2.21755C15.4828 1.79111 15.3135 1.38234 15.0124 1.08073C14.7108 0.779643 14.302 0.610352 13.8756 0.610352H2.08999C1.66354 0.610352 1.25478 0.779643 0.953698 1.08073C0.65208 1.38234 0.482788 1.79111 0.482788 2.21755C0.482788 4.08512 0.482788 7.91508 0.482788 9.78264C0.482788 10.2091 0.65208 10.6179 0.953698 10.9195C1.25478 11.2206 1.66354 11.3898 2.08999 11.3898H13.8756C14.302 11.3898 14.7108 11.2206 15.0124 10.9195C15.3135 10.6179 15.4828 10.2091 15.4828 9.78264V2.21755ZM14.4113 2.21755V9.78264C14.4113 9.92515 14.3551 10.0612 14.2544 10.1619C14.1542 10.2621 14.0181 10.3184 13.8756 10.3184H2.08999C1.94802 10.3184 1.81141 10.2621 1.71122 10.1619C1.61051 10.0612 1.55425 9.92515 1.55425 9.78264V2.21755C1.55425 2.07558 1.61051 1.93897 1.71122 1.83879C1.81141 1.73807 1.94802 1.68182 2.08999 1.68182H13.8756C14.0181 1.68182 14.1542 1.73807 14.2544 1.83879C14.3551 1.93897 14.4113 2.07558 14.4113 2.21755Z" fill="#008164"/>
<path fill-rule="evenodd" clip-rule="evenodd" d="M9.59033 4.40084L11.7349 4.4062C12.0301 4.40673 12.269 4.64674 12.269 4.94193V7.61685C12.269 7.75882 12.2127 7.89489 12.112 7.99561C12.0118 8.09579 11.8752 8.15258 11.7333 8.15258H4.23299C4.09102 8.15258 3.95441 8.09579 3.85423 7.99561C3.75351 7.89489 3.69726 7.75882 3.69726 7.61685V4.93979C3.69726 4.6446 3.93566 4.40512 4.23032 4.40405L5.84073 4.39655C6.13646 4.39495 6.37539 4.15386 6.37379 3.85814C6.37271 3.56242 6.13163 3.32348 5.83591 3.32509C5.83591 3.32509 4.97177 3.32884 4.22549 3.33259C3.341 3.33634 2.62579 4.05475 2.62579 4.93979C2.62579 5.73589 2.62579 6.81914 2.62579 7.61685C2.62579 8.04275 2.79509 8.45152 3.0967 8.75314C3.39779 9.05475 3.80655 9.22405 4.23299 9.22405C6.08824 9.22405 9.87802 9.22405 11.7333 9.22405C12.1597 9.22405 12.5685 9.05475 12.8696 8.75314C13.1712 8.45152 13.3405 8.04275 13.3405 7.61685C13.3405 6.82021 13.3405 5.73803 13.3405 4.94193C13.3405 4.05583 12.6237 3.33687 11.7375 3.33473L9.59033 3.32937C9.58765 3.14669 9.49175 2.97793 9.33639 2.8815C9.17835 2.78399 8.9812 2.77542 8.81512 2.85846L7.74366 3.39419C7.56204 3.48473 7.44739 3.6701 7.44739 3.87314C7.44739 4.07618 7.56204 4.26155 7.74366 4.35209L8.81512 4.88782C8.9812 4.97086 9.17835 4.96229 9.33639 4.86478C9.49443 4.76674 9.59033 4.59477 9.59033 4.40887V4.40084Z" fill="#008164"/>
</svg>
