<svg width="24" height="24" viewBox="0 0 16 16" fill="none" xmlns="http://www.w3.org/2000/svg">
<g clip-path="url(#clip0_168_2311)">
<path d="M7.04526 13.3906C7.04526 13.2613 7.15026 13.1562 7.27963 13.1562H9.62338C9.75276 13.1562 9.85776 13.2613 9.85776 13.3906C9.85776 13.52 9.75276 13.625 9.62338 13.625H7.27963C7.15026 13.625 7.04526 13.52 7.04526 13.3906ZM7.04526 9.40625C6.78651 9.40625 6.57651 9.61625 6.57651 9.875C6.57651 10.1337 6.78651 10.3438 7.04526 10.3438C7.30401 10.3438 7.51401 10.1337 7.51401 9.875C7.51401 9.61625 7.30401 9.40625 7.04526 9.40625ZM8.45151 9.40625C8.19276 9.40625 7.98276 9.61625 7.98276 9.875C7.98276 10.1337 8.19276 10.3438 8.45151 10.3438C8.71026 10.3438 8.92026 10.1337 8.92026 9.875C8.92026 9.61625 8.71026 9.40625 8.45151 9.40625ZM9.85776 9.40625C9.59901 9.40625 9.38901 9.61625 9.38901 9.875C9.38901 10.1337 9.59901 10.3438 9.85776 10.3438C10.1165 10.3438 10.3265 10.1337 10.3265 9.875C10.3265 9.61625 10.1165 9.40625 9.85776 9.40625ZM9.85776 8C9.59901 8 9.38901 8.21 9.38901 8.46875C9.38901 8.7275 9.59901 8.9375 9.85776 8.9375C10.1165 8.9375 10.3265 8.7275 10.3265 8.46875C10.3265 8.21 10.1165 8 9.85776 8ZM8.45151 8C8.19276 8 7.98276 8.21 7.98276 8.46875C7.98276 8.7275 8.19276 8.9375 8.45151 8.9375C8.71026 8.9375 8.92026 8.7275 8.92026 8.46875C8.92026 8.21 8.71026 8 8.45151 8ZM7.04526 8C6.78651 8 6.57651 8.21 6.57651 8.46875C6.57651 8.7275 6.78651 8.9375 7.04526 8.9375C7.30401 8.9375 7.51401 8.7275 7.51401 8.46875C7.51401 8.21 7.30401 8 7.04526 8ZM7.04526 6.59375C6.78651 6.59375 6.57651 6.80375 6.57651 7.0625C6.57651 7.32125 6.78651 7.53125 7.04526 7.53125C7.30401 7.53125 7.51401 7.32125 7.51401 7.0625C7.51401 6.80375 7.30401 6.59375 7.04526 6.59375ZM8.45151 6.59375C8.19276 6.59375 7.98276 6.80375 7.98276 7.0625C7.98276 7.32125 8.19276 7.53125 8.45151 7.53125C8.71026 7.53125 8.92026 7.32125 8.92026 7.0625C8.92026 6.80375 8.71026 6.59375 8.45151 6.59375ZM9.85776 6.59375C9.59901 6.59375 9.38901 6.80375 9.38901 7.0625C9.38901 7.32125 9.59901 7.53125 9.85776 7.53125C10.1165 7.53125 10.3265 7.32125 10.3265 7.0625C10.3265 6.80375 10.1165 6.59375 9.85776 6.59375ZM9.15463 2.375H7.74838C7.61901 2.375 7.51401 2.48 7.51401 2.60938C7.51401 2.73875 7.61901 2.84375 7.74838 2.84375H9.15463C9.28401 2.84375 9.38901 2.73875 9.38901 2.60938C9.38901 2.48 9.28401 2.375 9.15463 2.375ZM9.15463 3.3125H7.74838C7.61901 3.3125 7.51401 3.4175 7.51401 3.54688C7.51401 3.67625 7.61901 3.78125 7.74838 3.78125H9.15463C9.28401 3.78125 9.38901 3.67625 9.38901 3.54688C9.38901 3.4175 9.28401 3.3125 9.15463 3.3125ZM13.6078 11.75V12.2188V13.625C13.6078 14.4017 12.9782 15.0312 12.2015 15.0312H4.70151C3.92479 15.0312 3.29526 14.4017 3.29526 13.625V12.2188V11.75L4.08651 5.02297C4.16995 4.31516 4.76995 3.69262 5.48338 3.69262H6.45932V1.4375C6.45932 1.17875 6.78651 0.96875 7.04526 0.96875H9.85776C10.1165 0.96875 10.4437 1.17875 10.4437 1.4375V3.69262H11.4196C12.1326 3.69262 12.7331 4.31516 12.816 5.02297L13.6078 11.75ZM7.04526 4.71875H9.85776V1.4375H7.04526V4.71875ZM3.86515 11.75H13L12.2153 5.07781C12.1595 4.60578 11.8949 4.25 11.4196 4.25H10.4437V4.71875H10.6854C10.6854 4.71875 11 4.72862 11 5C11 5.27138 10.6854 5.27138 10.6854 5.27138H6.34213C6.34213 5.27138 6 5.27138 6 5C6 4.72862 6.34213 4.71875 6.34213 4.71875H6.45932V4.25H5.48338C5.00807 4.25 4.70562 4.60578 4.64984 5.07781L3.86515 11.75ZM13 12.2188H3.86515V13.625C3.86515 14.142 4.18448 14.4646 4.70151 14.4646H12.2015C12.7185 14.4646 13 14.142 13 13.625V12.2188Z" fill="#008164"/>
</g>
<defs>
<clipPath id="clip0_168_2311">
<rect width="15" height="15" fill="white" transform="translate(0.482758 0.5)"/>
</clipPath>
</defs>
</svg>
