<svg width="24" height="24" viewBox="0 0 16 16" fill="none" xmlns="http://www.w3.org/2000/svg">
<path fill-rule="evenodd" clip-rule="evenodd" d="M7.5537 1.15015C7.15667 1.15015 6.81252 1.425 6.72474 1.81221L6.48666 2.86238C6.10766 2.9726 5.7461 3.12354 5.40712 3.31004L4.49611 2.73576C4.16024 2.52403 3.72254 2.57303 3.44179 2.85377L2.8357 3.45986C2.55495 3.74061 2.50596 4.17831 2.71769 4.51418L3.29217 5.42552C3.10583 5.76441 2.95503 6.12585 2.84492 6.50472L1.79485 6.74278C1.40764 6.83056 1.13278 7.17471 1.13278 7.57174V8.42888C1.13278 8.82592 1.40764 9.17006 1.79485 9.25785L2.84504 9.49593C2.95521 9.8749 3.1061 10.2364 3.29255 10.5754L2.71816 11.4866C2.50643 11.8225 2.55543 12.2602 2.83617 12.5409L3.44226 13.147C3.72301 13.4277 4.16071 13.4767 4.49658 13.265L5.40782 12.6906C5.7466 12.8769 6.10791 13.0277 6.48665 13.1378L6.72474 14.188C6.81252 14.5752 7.15667 14.8501 7.5537 14.8501H8.41085C8.80788 14.8501 9.15203 14.5752 9.23981 14.188L9.47781 13.1382C9.85687 13.0281 10.2185 12.8773 10.5575 12.6908L11.4687 13.2652C11.8046 13.4769 12.2423 13.4279 12.523 13.1472L13.1291 12.5411C13.4099 12.2604 13.4589 11.8227 13.2471 11.4868L12.673 10.5759C12.8595 10.2368 13.0105 9.87506 13.1208 9.49587L14.1707 9.25785C14.5579 9.17006 14.8327 8.82592 14.8327 8.42888V7.57174C14.8327 7.1747 14.5579 6.83056 14.1707 6.74278L13.1209 6.50478C13.0107 6.12569 12.8598 5.76405 12.6733 5.42498L13.2476 4.51398C13.4593 4.17811 13.4103 3.74041 13.1296 3.45966L12.5235 2.85357C12.2428 2.57282 11.8051 2.52383 11.4692 2.73556L10.5582 3.3098C10.219 3.12319 9.85713 2.9722 9.4778 2.86199L9.23981 1.81221C9.15203 1.425 8.80788 1.15015 8.41085 1.15015H7.5537ZM5.40329 4.31242C5.92999 3.9433 6.5394 3.68415 7.19819 3.5683L7.5537 2.00015H8.41085L8.76631 3.56807C9.42543 3.68378 10.0352 3.94293 10.5621 4.31214L11.9225 3.45461L12.5286 4.0607L11.671 5.42108C12.0401 5.94789 12.2991 6.55741 12.4149 7.21629L13.9827 7.57174V8.42888L12.4148 8.78435C12.299 9.44333 12.0398 10.0529 11.6706 10.5798L12.5281 11.9401L11.922 12.5462L10.5615 11.6885C10.0347 12.0575 9.42517 12.3165 8.76631 12.4322L8.41085 14.0001H7.5537L7.19819 12.4319C6.53966 12.3161 5.93047 12.0571 5.40391 11.6882L4.0433 12.5459L3.43721 11.9399L4.29489 10.5793C3.92586 10.0526 3.66679 9.44317 3.55101 8.78441L1.98278 8.42888V7.57174L3.55094 7.21623C3.66664 6.55756 3.92558 5.94824 4.29447 5.42156L3.43674 4.06091L4.04283 3.45481L5.40329 4.31242ZM9.50772 7.99999C9.50772 8.84217 8.82499 9.5249 7.9828 9.5249C7.14062 9.5249 6.45789 8.84217 6.45789 7.99999C6.45789 7.1578 7.14062 6.47507 7.9828 6.47507C8.82499 6.47507 9.50772 7.1578 9.50772 7.99999ZM10.4077 7.99999C10.4077 9.33923 9.32205 10.4249 7.9828 10.4249C6.64356 10.4249 5.55789 9.33923 5.55789 7.99999C5.55789 6.66074 6.64356 5.57507 7.9828 5.57507C9.32205 5.57507 10.4077 6.66074 10.4077 7.99999Z" fill="#008164"/>
</svg>
