<svg width="24" height="24" viewBox="0 0 16 16" fill="none" xmlns="http://www.w3.org/2000/svg">
<path fill-rule="evenodd" clip-rule="evenodd" d="M5.98276 1.5C5.70662 1.5 5.48276 1.72386 5.48276 2C5.48276 2.27614 5.70662 2.5 5.98276 2.5H9.98276C10.2589 2.5 10.4828 2.27614 10.4828 2C10.4828 1.72386 10.2589 1.5 9.98276 1.5H5.98276ZM3.48276 4C3.48276 3.72386 3.70662 3.5 3.98276 3.5H5.48276H10.4828H11.9828C12.2589 3.5 12.4828 3.72386 12.4828 4C12.4828 4.27614 12.2589 4.5 11.9828 4.5H11.4828V12.5C11.4828 13.0523 11.0351 13.5 10.4828 13.5H5.48276C4.93048 13.5 4.48276 13.0523 4.48276 12.5V4.5H3.98276C3.70662 4.5 3.48276 4.27614 3.48276 4ZM5.48276 4.5H10.4828V12.5H5.48276V4.5Z" fill="#1DA889"/>
</svg>
