<svg width="15" height="16" viewBox="0 0 15 16" fill="none" xmlns="http://www.w3.org/2000/svg">
<path fill-rule="evenodd" clip-rule="evenodd" d="M7.81825 1.68185C7.64251 1.50611 7.35759 1.50611 7.18185 1.68185L4.18185 4.68185C4.00611 4.85759 4.00611 5.14251 4.18185 5.31825C4.35759 5.49398 4.64251 5.49398 4.81825 5.31825L7.05005 3.08644V9.99993C7.05005 10.2485 7.25152 10.4499 7.50005 10.4499C7.74858 10.4499 7.95005 10.2485 7.95005 9.99993V3.08645L10.1819 5.31825C10.3576 5.49398 10.6425 5.49398 10.8182 5.31825C10.994 5.14251 10.994 4.85759 10.8182 4.68185L7.81825 1.68185ZM2.5 10.4999C2.77614 10.4999 3 10.7238 3 10.9999V12.4999C3 13.0538 3.44565 13.4999 3.99635 13.4999H11.0012C11.5529 13.4999 12 13.0527 12 12.4999V10.9999C12 10.7238 12.2239 10.4999 12.5 10.4999C12.7761 10.4999 13 10.7238 13 10.9999V12.4999C13 13.604 12.1062 14.4999 11.0012 14.4999H3.99635C2.89019 14.4999 2 13.6029 2 12.4999V10.9999C2 10.7238 2.22386 10.4999 2.5 10.4999Z" fill="#008164"/>
</svg>
